
	<svg xmlns="http://www.w3.org/2000/svg" xmlns:xlink="http://www.w3.org/1999/xlink" version="1.1" width="512" height="512" viewBox="0 0 100 100">


		<defs>
			<linearGradient id="Gradient_2" gradientUnits="userSpaceOnUse" x1="50" y1="62" x2="50" y2="0" spreadMethod="pad">
			<stop offset="0%" stop-color="#FFFFFF" stop-opacity="0.2"/>
			<stop offset="100%" stop-color="#FFFFFF" stop-opacity="0.7"/>
		</linearGradient><linearGradient id="Gradient_3" gradientUnits="userSpaceOnUse" x1="60" y1="100" x2="60" y2="0" spreadMethod="pad">
			<stop offset="0%" stop-color="#FFFFFF" stop-opacity="0"/>
			<stop offset="100%" stop-color="#FFFFFF" stop-opacity="0.4"/>
		</linearGradient><linearGradient id="Gradient_4" gradientUnits="userSpaceOnUse" x1="40" y1="100" x2="40" y2="0" spreadMethod="pad">
			<stop offset="0%" stop-color="#FFFFFF" stop-opacity="0"/>
			<stop offset="100%" stop-color="#FFFFFF" stop-opacity="0.4"/>
		</linearGradient><g id="background">
			<path fill="url(#background-gradient)" stroke="none" d=" M 100 13.35 Q 100 7.85 96.1 3.95 92.2 0 86.65 0 L 13.3 0 Q 7.8 0 3.9 3.95 0 7.85 0 13.35 L 0 86.7 Q 0 92.2 3.9 96.15 7.8 100 13.3 100 L 86.65 100 Q 92.2 100 96.1 96.15 100 92.2 100 86.7 L 100 13.35 Z"/>
		</g><mask id="mask">
			<path fill="#FFFFFF" stroke="none" d=" M 100 13.35 Q 100 7.85 96.1 3.95 92.2 0 86.65 0 L 13.3 0 Q 7.8 0 3.9 3.95 0 7.85 0 13.35 L 0 86.7 Q 0 92.2 3.9 96.15 7.8 100 13.3 100 L 86.65 100 Q 92.2 100 96.1 96.15 100 92.2 100 86.7 L 100 13.35 Z"/>
		</mask><g id="gloss-top">
			<path fill="url(#Gradient_2)" stroke="none" d=" M 100 42.9 L 100 13.35 Q 100 7.8 96.15 3.9 92.25 0 86.7 0 L 13.35 0 Q 7.85 0 3.9 3.9 0 7.8 0 13.35 L 0 42.9 Q 10.3 51.8 22.9 56.65 35.95 61.65 50 61.65 64.05 61.65 77.1 56.65 89.75 51.8 100 42.9 Z"/>
		</g><g id="gloss-right">
			<path fill="url(#Gradient_3)" stroke="none" d=" M 96.1 3.9 Q 92.2 0 86.7 0 L 20.85 0 75.8 100 86.7 100 Q 92.2 100 96.1 96.1 100 92.2 100 86.65 L 100 13.35 Q 100 7.8 96.1 3.9 Z"/>
		</g><g id="gloss-left">
			<path fill="url(#Gradient_4)" stroke="none" d=" M 3.9 3.95 Q 0 7.85 0 13.35 L 0 86.7 Q 0 92.2 3.9 96.15 7.8 100 13.3 100 L 24.2 100 79.15 0 13.3 0 Q 7.8 0 3.9 3.95 Z"/>
		</g>
			
	<linearGradient id="background-gradient" x1="0" y1="0" y2="1" x2="0" >
		<stop stop-color="#6FDBFD" offset="0%"/>
		<stop stop-color="#1A99FC" offset="100%"/>
	</linearGradient>

			
			
			<g transform="scale(1.694915254237288) translate(-0.5 -0.5)" id="picture"><path d="M30 .5C13.7.5.5 13.7.5 30c0 8.5 3.7 16.6 10.1 22.3C16 57 22.8 59.5 30 59.5c1.6 0 3.1-.1 4.7-.4.5-.1.9-.6.8-1.1-.1-.5-.6-.9-1.1-.8-1.4.2-2.9.3-4.3.3-6.3 0-12.3-2.1-17.2-6h.1l.3-.3c.2-.2.4-.3.6-.5.1-.1.3-.2.4-.3.2-.2.4-.3.6-.5.2-.1.3-.2.5-.4.2-.1.5-.3.7-.4.2-.1.4-.2.6-.4.2-.2.5-.3.8-.5l.6-.3c.3-.2.6-.3.9-.5l.6-.3c.3-.2.7-.4 1.1-.5.2-.1.3-.2.5-.3.6-.3 1.1-.5 1.7-.8.4-.2.8-.4 1.1-.6.1-.1.2-.1.2-.2.3-.2.5-.4.7-.6l.2-.2c.3-.3.5-.5.7-.8 0 0 0-.1.1-.1.2-.3.4-.6.5-1 0 0 0-.1.1-.1 0 0 .1 0 .1.1.2.1.3.1.5.2s.5.2.7.3c.2.1.4.1.5.2.2.1.4.1.7.2.2 0 .4.1.6.1.2 0 .4 0 .6.1h.6c.2 0 .4 0 .6-.1.2 0 .4 0 .5-.1.3 0 .5-.1.8-.2.1 0 .3-.1.4-.1.3-.1.6-.2.9-.4.1 0 .2-.1.3-.1.4-.2.8-.4 1.2-.7l.1-.1s.1 0 .1-.1c3-2.2 5.2-5.7 5.2-8.6V30c.8-.9 2.5-3 2.5-4.4 0-1.5-1-2.6-2.5-2.9v-2.1c0-.4.1-4.9-2.9-8.1-1.5-1.5-3.4-2.5-5.8-2.8H32c-.2 0-.4-.1-.7-.1h-1c-3.2 0-5.8 1-7.6 2.9-3.1 3.2-2.9 8-2.9 8.1v2.1c-1.5.3-2.5 1.4-2.5 2.9 0 1.4 1.7 3.5 2.5 4.4v2.6c0 .4 0 .7.1 1.1 0 .1.1.3.1.4.1.2.1.5.2.7 0 .2.1.3.2.5s.2.5.3.7c.1.2.2.3.2.5l.3.6c.1.2.2.3.3.5.1.2.3.4.4.6.1.2.2.3.4.5s.3.4.5.6c.1.2.3.3.4.5l.5.5c.2.1.3.3.5.4l.3.3c0 .1 0 .1-.1.2v.1c-.1.1-.1.3-.2.4-.1.1-.2.3-.2.4l-.1.1c-.1.1-.1.2-.2.3 0 .1-.1.1-.1.2l-.3.3c-.1 0-.1.1-.2.1-.1.1-.2.2-.4.3-.1 0-.1.1-.2.1l-.6.3s-.1 0-.1.1c-.6.3-1.2.5-1.7.8-.2.1-.4.2-.5.3l-1.2.6-.6.3c-.3.2-.7.4-1 .5l-.6.3c-.3.2-.6.4-.9.5-.2.1-.4.2-.5.3-.3.2-.5.3-.8.5-.2.1-.3.2-.5.3-.2.2-.5.3-.7.5-.2.1-.3.2-.4.3-.2.2-.4.4-.7.5-.1.1-.3.2-.4.3-.1 0-.1.1-.2.1-5.4-5.1-8.6-12.4-8.6-20C2.5 14.8 14.8 2.5 30 2.5S57.5 14.8 57.5 30c0 4.2-.9 8.3-2.8 12.1-.2.5 0 1.1.5 1.3.5.2 1.1 0 1.3-.5 2-4 3-8.4 3-12.9C59.5 13.7 46.3.5 30 .5zm-10.5 25c0-1 1.3-1 1.5-1 .6 0 1-.4 1-1v-3s-.2-4.1 2.3-6.7c1.4-1.5 3.5-2.3 6.2-2.3 8.4 0 8.5 8.6 8.5 9v3c0 .6.4 1 1 1 .2 0 1.5 0 1.5 1 0 .5-1.1 2.1-2.2 3.3-.2.2-.3.4-.3.7v3c0 .3 0 .6-.1.9 0 .1-.1.2-.1.3 0 .2-.1.4-.2.6 0 .1-.1.3-.2.4-.1.2-.1.4-.2.5-.1.1-.2.3-.2.4-.1.2-.2.3-.3.5-.1.2-.2.3-.3.4-.1.2-.2.3-.3.5-.1.2-.2.3-.4.4-.1.1-.2.3-.4.4l-.4.4-.4.4c-.1.1-.3.2-.4.4-.1.1-.3.2-.4.4h-.1c-2.9 1.9-5.4 1.9-8.2 0h-.1c-.2-.1-.3-.2-.4-.4-.1-.1-.3-.2-.4-.4l-.4-.4-.4-.4c-.1-.1-.3-.3-.4-.5-.1-.1-.2-.3-.3-.4-.1-.2-.2-.3-.3-.5-.1-.1-.2-.3-.3-.4-.3 0-.4-.2-.4-.4-.1-.1-.2-.3-.2-.4-.1-.2-.2-.4-.2-.6-.1-.1-.1-.3-.2-.4-.1-.2-.1-.4-.2-.6 0-.1-.1-.2-.1-.3-.1-.2-.1-.5-.1-.8v-3c0-.3-.1-.5-.3-.7-1.1-1.2-2.2-2.8-2.2-3.3z M49.5 52.5c1-1.3 1.5-2.8 1.5-4.5 0-4.1-3.4-7.5-7.5-7.5S36 43.9 36 48s3.4 7.5 7.5 7.5c1.7 0 3.3-.6 4.5-1.5l4.3 4.3c.2.2.5.3.7.3s.5-.1.7-.3c.4-.4.4-1 0-1.4l-4.2-4.4zM38 48c0-3 2.5-5.5 5.5-5.5S49 45 49 48s-2.5 5.5-5.5 5.5S38 51 38 48z"/></g>
			
	<linearGradient id="picture-gradient" x1="0" y1="0" y2="1" x2="0" >
		<stop stop-color="#ffffff" offset="0%"/>
		<stop stop-color="#e5eff9" offset="100%"/>
	</linearGradient>

		</defs>

		

			<use xlink:href="#background" fill="url(#background-gradient)" />

		

			<g mask="url(#mask)">
				<g transform="
				        translate(
                                50 50
)
                            translate(0 0)  scale(0.7000000000000002)  
                            translate(
                                -50 -50
)">
						<use xlink:href="#picture" fill="url(#picture-gradient)"  />
				</g>
			</g>

		

			<use xlink:href="#gloss-left" opacity="1" />


	</svg>
